# This file uses centimeters as units for non-parametric coordinates.

mtllib LaneSnapper.mtl
g default
v -0.000000 2.326316 4.160754
v -0.000000 2.069099 3.263110
v -0.000001 1.839256 -0.866615
v -0.000000 4.349937 4.160755
v -0.000000 4.811803 3.263110
v -0.000001 4.593388 -0.866620
v -0.000000 1.743714 0.784376
v -0.000000 5.115357 1.176286
v -0.000000 1.967888 -4.375228
v -0.000001 4.887866 -4.375227
v -0.000001 2.731964 -2.700414
v -0.000000 3.731519 -2.933075
v 0.000042 5.270605 -5.574890
v 0.000042 1.648101 -5.649789
v -0.000001 1.904480 2.191490
v -0.000001 5.069664 2.286332
v -0.000000 1.749950 -0.055973
v -0.000000 4.932487 -0.055975
v -0.000001 3.530248 5.402720
v 0.107238 3.282470 4.988182
v -0.000001 3.011179 5.649788
v -0.000000 2.529697 4.772940
v -0.000000 3.961503 4.772940
v -0.000000 1.824531 1.533803
v -0.000001 5.139383 1.889267
v 0.000042 0.942969 1.937412
v 0.000042 1.530142 1.172502
v 0.000042 0.389112 1.285350
v 0.000042 1.329518 1.122350
v -0.000000 2.385523 -2.079156
v -0.000000 3.867342 -2.286243
v 0.000042 1.454908 -1.147163
v 0.000042 2.445467 -2.513887
v 0.000042 1.241748 -2.325805
v 0.000042 1.730759 -2.777200
v 0.000042 6.171888 1.033542
v 0.000042 5.609806 2.037259
v 0.000042 5.296588 -0.614624
v 0.000042 5.358877 -1.736722
v 0.000042 4.997540 -2.690254
v 0.000042 4.415380 -3.162001
v 0.346687 3.290112 4.160754
v 0.528644 3.290112 3.263110
v 0.734748 3.290112 2.352628
v 0.941327 3.290112 0.784374
v 0.939895 3.290112 -0.055975
v 0.869600 3.290112 -0.866619
v 0.000000 3.290112 -4.536816
v 0.000042 3.290112 -5.257944
v 0.928422 3.290112 1.391157
v 0.170176 3.290112 4.772940
v -0.000000 5.075934 0.658746
v 0.000042 5.734238 0.209459
v 0.000042 0.565357 1.611381
v -0.000001 1.870842 1.889267
v 0.816237 3.290112 1.889267
v 0.017123 1.239271 1.547706
v 0.017123 0.950972 1.350599
v 0.000042 0.815668 1.188974
v 0.669101 3.290112 -2.079156
v 0.506783 3.290112 -2.700413
v 0.301845 3.290112 -3.411765
v -0.170177 3.290112 4.772940
v -0.346688 3.290112 4.160754
v -0.528645 3.290112 3.263110
v -0.734750 3.290112 2.352628
v -0.928423 3.290112 1.391157
v -0.816238 3.290112 1.889267
v -0.941328 3.290112 0.784374
v -0.939896 3.290112 -0.055975
v -0.869601 3.290112 -0.866619
v -0.107239 3.282470 4.988182
v -0.669103 3.290112 -2.079156
v -0.506784 3.290112 -2.700413
v -0.301845 3.290112 -3.411766
vt 0.199307 0.992320
vt 0.095938 0.967896
vt 0.143939 0.870929
vt 0.276803 0.966456
vt 0.065697 0.931746
vt 0.074844 0.831420
vt 0.194374 0.771406
vt 0.342120 0.943290
vt 0.028243 0.819753
vt 0.089958 0.726408
vt 0.005574 0.722700
vt 0.829090 0.267523
vt 0.841470 0.357304
vt 0.636897 0.075045
vt 0.716274 0.017106
vt 0.693866 0.411684
vt 0.592875 0.318461
vt 0.671719 0.883070
vt 0.518159 0.927667
vt 0.570660 0.789086
vt 0.666449 0.814724
vt 0.420312 0.842533
vt 0.501818 0.767498
vt 0.322465 0.757398
vt 0.409542 0.725635
vt 0.168567 0.730602
vt 0.310420 0.654267
vt 0.050795 0.651737
vt 0.140986 0.511383
vt 0.005194 0.558096
vt 0.057060 0.472543
vt 0.073766 0.112455
vt 0.126205 0.053510
vt 0.187686 0.079961
vt 0.121221 0.154673
vt 0.059764 0.094596
vt 0.025030 0.030364
vt 0.275008 0.121925
vt 0.190805 0.216575
vt 0.048135 0.236828
vt 0.027466 0.164500
vt 0.008387 0.087640
vt 0.369430 0.183064
vt 0.261383 0.279363
vt 0.085867 0.334534
vt 0.395177 0.201298
vt 0.297302 0.311317
vt 0.143802 0.421882
vt 0.425926 0.222222
vt 0.335915 0.345668
vt 0.169774 0.454669
vt 0.489593 0.267639
vt 0.382951 0.387512
vt 0.226700 0.501975
vt 0.554305 0.326074
vt 0.448094 0.445464
vt 0.269537 0.534609
vt 0.610986 0.388899
vt 0.510933 0.501367
vt 0.334833 0.572777
vt 0.667308 0.514863
vt 0.604926 0.584985
vt 0.421057 0.602394
vt 0.691576 0.584561
vt 0.653085 0.627828
vt 0.581173 0.644012
vt 0.812445 0.647544
vt 0.708227 0.676884
vt 0.641026 0.678397
vt 0.795439 0.754469
vt 0.679279 0.797232
vt 0.994950 0.703936
vt 0.851339 0.804199
vt 0.739331 0.979579
vt 0.073766 0.112455
vt 0.126205 0.053510
vt 0.187686 0.079961
vt 0.121221 0.154673
vt 0.275008 0.121925
vt 0.190805 0.216575
vt 0.369430 0.183064
vt 0.261383 0.279363
vt 0.395177 0.201298
vt 0.425926 0.222222
vt 0.335915 0.345668
vt 0.297302 0.311317
vt 0.489593 0.267639
vt 0.382951 0.387512
vt 0.554305 0.326074
vt 0.448094 0.445464
vt 0.610986 0.388899
vt 0.510933 0.501367
vt 0.048135 0.236828
vt 0.027466 0.164500
vt 0.085867 0.334534
vt 0.143802 0.421882
vt 0.226700 0.501975
vt 0.169774 0.454669
vt 0.269537 0.534609
vt 0.334833 0.572777
vt 0.421057 0.602394
vt 0.008387 0.087640
vt 0.059764 0.094596
vt 0.025030 0.030364
vt 0.667308 0.514863
vt 0.604926 0.584985
vt 0.691576 0.584561
vt 0.653085 0.627828
vt 0.708227 0.676884
vt 0.581173 0.644012
vt 0.641026 0.678397
vt 0.897445 0.299932
vt 0.840743 0.182022
vt 0.957049 0.183462
vt 0.901045 0.009226
vn -0.999488 -0.028917 0.013686
vn -0.999488 -0.028917 0.013686
vn -0.999873 -0.011136 -0.011400
vn -0.999837 -0.007598 -0.016389
vn -0.999250 0.025989 0.028717
vn -0.999454 0.028428 0.016846
vn -0.999640 0.025058 -0.009635
vn -0.999855 0.016067 0.005614
vn -1.000000 -0.000112 -0.000067
vn -1.000000 -0.000112 -0.000067
vn -1.000000 -0.000112 -0.000067
vn -1.000000 -0.000112 -0.000067
vn -1.000000 0.000000 0.000000
vn -1.000000 0.000000 0.000000
vn -1.000000 0.000000 0.000000
vn -1.000000 0.000000 0.000000
vn -1.000000 0.000055 0.000017
vn -1.000000 0.000055 0.000017
vn -1.000000 0.000055 0.000017
vn -1.000000 0.000055 0.000017
vn -1.000000 0.000052 -0.000019
vn -1.000000 0.000060 -0.000023
vn -1.000000 0.000060 -0.000023
vn -1.000000 0.000049 -0.000018
vn -1.000000 0.000063 -0.000009
vn -1.000000 0.000063 -0.000009
vn -1.000000 0.000063 -0.000009
vn -1.000000 0.000063 -0.000009
vn -1.000000 0.000034 -0.000016
vn -1.000000 0.000034 -0.000016
vn -1.000000 0.000034 -0.000016
vn -1.000000 0.000034 -0.000016
vn -1.000000 0.000038 -0.000024
vn -1.000000 0.000038 -0.000024
vn -1.000000 0.000038 -0.000024
vn -1.000000 0.000038 -0.000024
vn 0.941771 -0.282313 0.182665
vn 0.941771 -0.282313 0.182665
vn 0.941771 -0.282313 0.182665
vn 0.941771 -0.282313 0.182665
vn 0.918352 -0.367933 0.145792
vn 0.918352 -0.367933 0.145792
vn 0.918352 -0.367933 0.145792
vn 0.918352 -0.367933 0.145792
vn 0.889212 -0.438955 0.128919
vn 0.889212 -0.438955 0.128919
vn 0.889212 -0.438955 0.128919
vn 0.889212 -0.438955 0.128919
vn 0.857491 -0.498237 0.128336
vn 0.850381 -0.507394 0.139294
vn 0.850381 -0.507394 0.139294
vn 0.857522 -0.498195 0.128286
vn 0.849784 -0.525655 0.039410
vn 0.849784 -0.525655 0.039410
vn 0.849784 -0.525655 0.039410
vn 0.849784 -0.525655 0.039410
vn 0.853895 -0.520439 -0.002659
vn 0.853895 -0.520439 -0.002659
vn 0.853895 -0.520439 -0.002659
vn 0.853895 -0.520439 -0.002659
vn 0.853773 -0.516513 -0.065469
vn 0.853773 -0.516513 -0.065469
vn 0.853773 -0.516513 -0.065469
vn 0.853773 -0.516513 -0.065469
vn 1.000000 -0.000003 0.000042
vn 1.000000 -0.000003 0.000042
vn 1.000000 -0.000003 0.000042
vn 1.000000 -0.000003 0.000042
vn 0.934049 0.278865 0.223127
vn 0.934049 0.278865 0.223127
vn 0.934049 0.278865 0.223128
vn 0.934049 0.278865 0.223128
vn 0.932287 0.316117 0.175815
vn 0.932287 0.316117 0.175815
vn 0.932287 0.316117 0.175815
vn 0.932287 0.316117 0.175815
vn 0.922458 0.356027 0.149385
vn 0.922458 0.356027 0.149385
vn 0.922458 0.356027 0.149385
vn 0.922458 0.356027 0.149385
vn 0.899121 0.431273 0.074731
vn 0.899121 0.431273 0.074731
vn 0.904615 0.416271 0.091598
vn 0.904571 0.416398 0.091456
vn 0.888233 0.459355 -0.005911
vn 0.888233 0.459355 -0.005911
vn 0.888233 0.459355 -0.005911
vn 0.888233 0.459355 -0.005911
vn 0.876484 0.479321 -0.045022
vn 0.876484 0.479321 -0.045022
vn 0.876484 0.479321 -0.045022
vn 0.876484 0.479321 -0.045022
vn 0.843083 0.517901 -0.144875
vn 0.843084 0.517901 -0.144875
vn 0.843084 0.517901 -0.144875
vn 0.843084 0.517901 -0.144875
vn 1.000000 0.000002 0.000044
vn 1.000000 0.000002 0.000044
vn 1.000000 0.000002 0.000044
vn 1.000000 0.000002 0.000044
vn -1.000000 0.000044 -0.000015
vn -1.000000 0.000044 -0.000015
vn -0.999175 -0.018326 0.036236
vn -0.999062 -0.016302 0.040122
vn -0.999969 0.006865 -0.003768
vn 0.961215 0.208888 0.180087
vn 0.961215 0.208888 0.180087
vn 0.961215 0.208888 0.180087
vn 0.961215 0.208888 0.180087
vn 0.975196 -0.176947 0.132976
vn 0.975196 -0.176947 0.132976
vn 0.975196 -0.176947 0.132976
vn 0.975196 -0.176947 0.132976
vn 0.866679 -0.485761 0.113593
vn 0.866679 -0.485761 0.113593
vn 0.912307 0.392086 0.118172
vn 0.912307 0.392086 0.118172
vn -0.999330 0.022610 -0.028781
vn -0.999682 -0.001353 -0.025192
vn -0.999682 -0.001353 -0.025192
vn 0.822117 -0.537051 -0.188945
vn 0.822117 -0.537051 -0.188945
vn 0.822117 -0.537051 -0.188945
vn 0.822117 -0.537051 -0.188945
vn 0.751197 -0.603883 -0.266510
vn 0.751197 -0.603883 -0.266510
vn 0.751197 -0.603883 -0.266510
vn 0.751198 -0.603883 -0.266510
vn 0.906436 -0.418590 0.056187
vn 0.906436 -0.418590 0.056187
vn 0.906436 -0.418590 0.056187
vn 0.906436 -0.418590 0.056187
vn 0.965359 -0.031653 -0.259000
vn 0.965359 -0.031653 -0.259000
vn 0.965359 -0.031653 -0.259000
vn 0.766157 0.602180 -0.224463
vn 0.766157 0.602180 -0.224463
vn 0.766157 0.602180 -0.224463
vn 0.766157 0.602180 -0.224463
vn 0.680181 0.714555 -0.163600
vn 0.680181 0.714555 -0.163600
vn 0.680181 0.714555 -0.163600
vn 0.680181 0.714555 -0.163600
vn 0.884938 0.440159 0.152133
vn 0.884938 0.440159 0.152133
vn 0.884938 0.440159 0.152133
vn 0.884938 0.440159 0.152133
vn 0.965511 0.026199 -0.259041
vn 0.965511 0.026199 -0.259041
vn 0.965511 0.026199 -0.259041
vn -0.941771 -0.282314 0.182665
vn -0.941771 -0.282314 0.182665
vn -0.941771 -0.282314 0.182665
vn -0.941771 -0.282314 0.182665
vn -0.918352 -0.367933 0.145792
vn -0.918352 -0.367933 0.145792
vn -0.918352 -0.367933 0.145792
vn -0.918352 -0.367933 0.145792
vn -0.889212 -0.438955 0.128919
vn -0.889212 -0.438955 0.128919
vn -0.889212 -0.438955 0.128919
vn -0.889212 -0.438955 0.128919
vn -0.857491 -0.498237 0.128336
vn -0.857522 -0.498195 0.128286
vn -0.850381 -0.507394 0.139294
vn -0.850381 -0.507394 0.139294
vn -0.849784 -0.525655 0.039410
vn -0.849784 -0.525655 0.039410
vn -0.849784 -0.525655 0.039410
vn -0.849784 -0.525655 0.039410
vn -0.853895 -0.520439 -0.002659
vn -0.853895 -0.520439 -0.002659
vn -0.853895 -0.520439 -0.002659
vn -0.853895 -0.520439 -0.002659
vn -0.853773 -0.516513 -0.065468
vn -0.853773 -0.516513 -0.065468
vn -0.853773 -0.516513 -0.065468
vn -0.853773 -0.516513 -0.065468
vn -0.934049 0.278866 0.223127
vn -0.934049 0.278866 0.223127
vn -0.934049 0.278866 0.223127
vn -0.934049 0.278866 0.223127
vn -0.932287 0.316117 0.175816
vn -0.932287 0.316117 0.175816
vn -0.932287 0.316117 0.175816
vn -0.932287 0.316117 0.175816
vn -0.922458 0.356027 0.149385
vn -0.922458 0.356027 0.149385
vn -0.922458 0.356027 0.149385
vn -0.922458 0.356027 0.149385
vn -0.899121 0.431273 0.074731
vn -0.904571 0.416398 0.091456
vn -0.904615 0.416271 0.091598
vn -0.899121 0.431273 0.074731
vn -0.888233 0.459355 -0.005911
vn -0.888233 0.459355 -0.005911
vn -0.888233 0.459355 -0.005911
vn -0.888233 0.459355 -0.005911
vn -0.876484 0.479321 -0.045022
vn -0.876484 0.479321 -0.045022
vn -0.876484 0.479321 -0.045022
vn -0.876484 0.479321 -0.045022
vn -0.843083 0.517901 -0.144875
vn -0.843083 0.517901 -0.144875
vn -0.843083 0.517901 -0.144875
vn -0.843083 0.517901 -0.144875
vn -0.961215 0.208888 0.180087
vn -0.961215 0.208888 0.180087
vn -0.961215 0.208888 0.180087
vn -0.961215 0.208888 0.180087
vn -0.975196 -0.176947 0.132976
vn -0.975196 -0.176947 0.132976
vn -0.975196 -0.176947 0.132976
vn -0.975196 -0.176947 0.132976
vn -0.866679 -0.485761 0.113592
vn -0.866679 -0.485761 0.113592
vn -0.912307 0.392086 0.118172
vn -0.912307 0.392086 0.118172
vn -0.822117 -0.537051 -0.188945
vn -0.822117 -0.537051 -0.188945
vn -0.822117 -0.537051 -0.188945
vn -0.822117 -0.537051 -0.188945
vn -0.751197 -0.603883 -0.266510
vn -0.751197 -0.603884 -0.266510
vn -0.751197 -0.603884 -0.266510
vn -0.751197 -0.603884 -0.266510
vn -0.906436 -0.418590 0.056186
vn -0.906436 -0.418590 0.056186
vn -0.906436 -0.418589 0.056186
vn -0.906436 -0.418590 0.056186
vn -0.965358 -0.031652 -0.259001
vn -0.965358 -0.031652 -0.259001
vn -0.965358 -0.031652 -0.259001
vn -0.766156 0.602180 -0.224463
vn -0.766156 0.602180 -0.224463
vn -0.766156 0.602180 -0.224463
vn -0.766156 0.602180 -0.224463
vn -0.680181 0.714555 -0.163600
vn -0.680181 0.714555 -0.163600
vn -0.680181 0.714555 -0.163600
vn -0.680181 0.714555 -0.163600
vn -0.884938 0.440160 0.152133
vn -0.884938 0.440160 0.152133
vn -0.884938 0.440160 0.152133
vn -0.884938 0.440160 0.152133
vn -0.965511 0.026198 -0.259042
vn -0.965511 0.026198 -0.259042
vn -0.965511 0.026198 -0.259042
vn 0.000000 -0.858355 0.513057
vn 0.000000 -0.858355 0.513057
vn 0.000000 -0.858355 0.513057
vn 0.000000 0.925236 0.379392
vn 0.000000 0.925236 0.379392
vn 0.000000 0.925236 0.379392
s 1
g laneFish
usemtl lambert2SG
f 24/1/1 27/2/2 57/3/3 55/4/4
s 2
f 59/9/5 28/11/6 54/10/7 58/6/8
s off
f 30/12/9 33/13/10 32/14/11 3/15/12
f 32/14/13 33/13/14 35/16/15 34/17/16
f 37/18/17 36/19/18 8/20/19 25/21/20
s 3
f 53/22/21 38/24/22 18/25/23 52/23/24
s off
f 39/26/25 6/27/26 18/25/27 38/24/28
f 6/27/29 39/26/30 40/28/31 31/29/32
f 41/30/33 12/31/34 31/29/35 40/28/36
f 51/32/37 22/33/38 1/34/39 42/35/40
f 42/35/41 1/34/42 2/38/43 43/39/44
f 43/39/45 2/38/46 15/43/47 44/44/48
s 4
f 55/46/49 24/49/50 50/50/51 56/47/52
s off
f 50/50/53 24/49/54 7/52/55 45/53/56
f 45/53/57 7/52/58 17/55/59 46/56/60
f 46/56/61 17/55/62 3/58/63 47/59/64
f 48/70/65 9/67/66 14/72/67 49/73/68
f 42/35/69 4/40/70 23/41/71 51/32/72
f 43/39/73 5/45/74 4/40/75 42/35/76
f 44/44/77 16/48/78 5/45/79 43/39/80
s 5
f 50/50/81 8/54/82 25/51/83 56/47/84
s off
f 45/53/85 52/57/86 8/54/87 50/50/88
f 46/56/89 18/60/90 52/57/91 45/53/92
f 47/59/93 6/63/94 18/60/95 46/56/96
f 48/70/97 49/73/98 13/74/99 10/71/100
s 3
f 8/20/101 36/19/102 53/22/21 52/23/24
s 2
f 27/2/103 29/5/104 58/6/8 57/3/105
s off
f 23/41/106 19/42/107 20/36/108 51/32/109
f 51/32/110 20/36/111 21/37/112 22/33/113
s 4
f 44/44/114 15/43/115 55/46/49 56/47/52
s 5
f 25/51/83 16/48/116 44/44/117 56/47/84
s 2
f 58/6/8 54/10/7 26/7/118 57/3/105
s 1
f 57/3/3 26/7/119 15/8/120 55/4/4
s 2
f 29/5/104 59/9/5 58/6/8
s off
f 47/59/121 3/58/122 30/61/123 60/62/124
f 60/62/125 30/61/126 11/64/127 61/65/128
f 61/65/129 11/64/130 9/67/131 62/68/132
f 62/68/133 9/67/134 48/70/135
f 60/62/136 31/66/137 6/63/138 47/59/139
f 61/65/140 12/69/141 31/66/142 60/62/143
f 62/68/144 10/71/145 12/69/146 61/65/147
f 48/70/148 10/71/149 62/68/150
f 63/75/151 64/78/152 1/77/153 22/76/154
f 64/78/155 65/80/156 2/79/157 1/77/158
f 65/80/159 66/82/160 15/81/161 2/79/162
s 6
f 55/83/163 68/86/164 67/85/165 24/84/166
s off
f 67/85/167 69/88/168 7/87/169 24/84/170
f 69/88/171 70/90/172 17/89/173 7/87/174
f 70/90/175 71/92/176 3/91/177 17/89/178
f 64/78/179 63/75/180 23/94/181 4/93/182
f 65/80/183 64/78/184 4/93/185 5/95/186
f 66/82/187 65/80/188 5/95/189 16/96/190
s 7
f 67/85/191 68/86/192 25/98/193 8/97/194
s off
f 69/88/195 67/85/196 8/97/197 52/99/198
f 70/90/199 69/88/200 52/99/201 18/100/202
f 71/92/203 70/90/204 18/100/205 6/101/206
f 23/94/207 63/75/208 72/103/209 19/102/210
f 63/75/211 22/76/212 21/104/213 72/103/214
s 6
f 66/82/215 68/86/164 55/83/163 15/81/216
s 7
f 25/98/193 68/86/192 66/82/217 16/96/218
s off
f 71/92/219 73/106/220 30/105/221 3/91/222
f 73/106/223 74/108/224 11/107/225 30/105/226
f 74/108/227 75/109/228 9/67/229 11/107/230
f 75/109/231 48/70/232 9/67/233
f 73/106/234 71/92/235 6/101/236 31/110/237
f 74/108/238 73/106/239 31/110/240 12/111/241
f 75/109/242 74/108/243 12/111/244 10/71/245
f 48/70/246 75/109/247 10/71/248
f 19/112/249 72/113/250 20/114/251
f 20/114/252 72/113/253 21/115/254
